Coordinates
version=1
nRows=4
nColumns=63
inDegrees=yes

Units are S.I. units (second, meters, Newtons, ...)
If the header above contains a line with 'inDegrees', this indicates whether rotational values are in degrees (yes) or radians (no).

endheader
time	pelvis_tilt	pelvis_list	pelvis_rotation	pelvis_tx	pelvis_ty	pelvis_tz	hip_flexion_r	hip_adduction_r	hip_rotation_r	knee_angle_r	knee_angle_r_beta	ankle_angle_r	subtalar_angle_r	mtp_angle_r	hip_flexion_l	hip_adduction_l	hip_rotation_l	knee_angle_l	knee_angle_l_beta	ankle_angle_l	subtalar_angle_l	mtp_angle_l	L5_S1_Flex_Ext	L5_S1_Lat_Bending	L5_S1_axial_rotation	L4_L5_Flex_Ext	L4_L5_Lat_Bending	L4_L5_axial_rotation	L3_L4_Flex_Ext	L3_L4_Lat_Bending	L3_L4_axial_rotation	L2_L3_Flex_Ext	L2_L3_Lat_Bending	L2_L3_axial_rotation	L1_L2_Flex_Ext	L1_L2_Lat_Bending	L1_L2_axial_rotation	L1_T12_Flex_Ext	L1_T12_Lat_Bending	L1_T12_axial_rotation	Abs_r3	Abs_r2	Abs_r1	Abs_t1	Abs_t2	neck_flexion	neck_bending	neck_rotation	arm_flex_r	arm_add_r	arm_rot_r	elbow_flex_r	pro_sup_r	wrist_flex_r	wrist_dev_r	arm_flex_l	arm_add_l	arm_rot_l	elbow_flex_l	pro_sup_l	wrist_flex_l	wrist_dev_l
      5.73333333	      1.46843171	    -21.28443561	    102.41897793	      0.17585786	      0.33578726	      0.53515533	     -0.21521140	     -0.91041688	    -14.20951096	      1.09083475	      0.01903866	      5.71492398	     -5.35164591	      0.00000000	      0.00984159	      3.05870134	    -12.49403055	      0.45735017	      0.00798227	     22.55060945	      5.81734702	      0.00000000	      0.04603831	      0.01686093	      0.81777071	      0.08549775	      0.02242504	      0.86888138	      0.07563634	      0.04099567	      0.86888138	      0.05261719	      0.04099567	      0.71554937	      0.04275118	      0.03438281	      0.66443870	      0.02630629	      0.02611758	      0.61332803	      0.32884707	      0.19073424	      4.54819535	      0.00000000	      0.00000000	     27.85624620	      0.55107656	      6.53372580	      4.63160775	    -14.01358357	     72.39188399	     19.95970777	     56.94492278	     -5.06082541	     -1.27242783	      5.43935001	    -13.64311824	     59.30481734	     21.17648526	     58.08919415	     -5.64920427	     -1.31999924
      5.75000000	      1.50352806	    -21.19284905	    102.95312579	      0.17589018	      0.33536136	      0.53550770	     -0.42251265	     -0.78655567	    -15.28219908	      1.06088568	      0.01851595	      5.90960011	     -4.96051397	      0.00000000	     -0.03571754	      2.96357748	    -12.07815274	      0.47038452	      0.00820976	     22.73638388	      6.06637961	      0.00000000	      0.05209667	      0.01788323	      0.67497288	      0.09674872	      0.02378469	      0.71715869	      0.08558962	      0.04348128	      0.71715869	      0.05954128	      0.04348128	      0.59060127	      0.04837697	      0.03646748	      0.54841547	      0.02976804	      0.02770112	      0.50622966	      0.37212129	      0.20229867	      3.75399667	      0.00000000	      0.00000000	     27.77898507	      1.16777401	      7.91243611	      5.17914592	    -13.97748962	     74.69617696	     19.84731094	     58.58709152	     -6.04822083	     -1.47272146	      5.70561341	    -13.85826269	     61.61376894	     20.97012910	     57.77327689	     -5.76323181	     -1.57289514
      5.76666667	      1.50300560	    -21.17132015	    102.92115951	      0.17629021	      0.33499970	      0.53594976	     -0.49262169	     -0.75651917	    -15.31950517	      1.07094140	      0.01869145	      5.90996484	     -4.97126807	      0.00000000	     -0.00491504	      2.94496241	    -12.07484001	      0.51423025	      0.00897501	     22.76361548	      6.06408123	      0.00000000	      0.05835629	      0.01291723	      0.67437507	      0.10837346	      0.01717992	      0.71652352	      0.09587354	      0.03140696	      0.71652352	      0.06669540	      0.03140696	      0.59007819	      0.05418965	      0.02634082	      0.54792975	      0.03334478	      0.02000880	      0.50578131	      0.41683311	      0.14612234	      3.75067185	      0.00000000	      0.00000000	     27.75974415	      1.16071370	      7.91919319	      5.31873675	    -13.99654562	     74.67166993	     19.84287208	     58.58300511	     -6.06892658	     -1.48547960	      5.63606182	    -13.87931476	     61.65011459	     20.90880266	     57.77812930	     -5.77614224	     -1.55073109
      5.78333333	      1.57259620	    -20.89633771	    103.48068381	      0.17604516	      0.33563535	      0.53657157	     -0.76625504	     -0.62891915	    -18.95881532	      1.24851549	      0.02179071	      6.46928692	     -1.17787503	      0.00000000	     -0.21027903	      2.80513578	    -11.28933011	      0.48916243	      0.00853749	     22.69035609	      5.78895823	      0.00000000	      0.02615653	      0.02950717	      0.55237069	      0.04857528	      0.03924454	      0.58689385	      0.04297256	      0.07174374	      0.58689385	      0.02989429	      0.07174374	      0.48332435	      0.02428895	      0.06017102	      0.44880118	      0.01494584	      0.04570661	      0.41427801	      0.18683345	      0.33379102	      3.07212004	      0.00000000	      0.00000000	     27.58990101	      1.18232043	      8.39917991	      6.22150148	    -13.95185947	     79.35090317	     19.36223279	     55.22648879	     -7.78844665	     -2.93225414	      8.71973481	    -13.54268845	     82.92187795	     18.51595689	     41.52363765	     -7.22357536	     -4.66988850
